<svg viewBox="0 0 75 75" width="75" height="75" fill="none" xmlns="http://www.w3.org/2000/svg"><path d="M17.5 49.375c-4.136 0-7.5 3.364-7.5 7.5s3.364 7.5 7.5 7.5 7.5-3.364 7.5-7.5-3.364-7.5-7.5-7.5zm0 12.5c-2.758 0-5-2.243-5-5 0-2.758 2.243-5 5-5s5 2.243 5 5-2.243 5-5 5zM60 49.375c-4.136 0-7.5 3.364-7.5 7.5s3.364 7.5 7.5 7.5 7.5-3.364 7.5-7.5-3.364-7.5-7.5-7.5zm0 12.5c-2.758 0-5-2.243-5-5 0-2.758 2.243-5 5-5 2.758 0 5 2.243 5 5s-2.242 5-5 5z" fill="#1A1A1A"/><path d="M74.801 42.449l-11.25-17.5a1.25 1.25 0 00-1.051-.574H48.75c-.691 0-1.25.56-1.25 1.25v31.25c0 .691.559 1.25 1.25 1.25h5v-2.5H50v-28.75h11.817L72.5 43.492v12.133h-6.25v2.5h7.5c.691 0 1.25-.559 1.25-1.25v-13.75c0-.239-.069-.475-.199-.676z" fill="#1A1A1A"/><path d="M55 40.625v-8.75h10v-2.5H53.75c-.691 0-1.25.56-1.25 1.25v11.25c0 .691.559 1.25 1.25 1.25H72.5v-2.5H55zM48.75 15.625H1.25c-.69 0-1.25.56-1.25 1.25v40c0 .691.56 1.25 1.25 1.25h10v-2.5H2.5v-37.5h45v37.5H23.75v2.5h25c.691 0 1.25-.559 1.25-1.25v-40c0-.69-.559-1.25-1.25-1.25z" fill="#1A1A1A"/><path d="M8.75 50.625h-7.5v2.5h7.5v-2.5zM47.5 50.625H26.25v2.5H47.5v-2.5zM73.75 50.625h-5v2.5h5v-2.5zM48.75 20.625H5v2.5h43.75v-2.5zM18.75 55.625h-2.5v2.5h2.5v-2.5zM61.25 55.625h-2.5v2.5h2.5v-2.5zM22.5 10.625H5v2.5h17.5v-2.5zM2.5 10.625H0v2.5h2.5v-2.5z" fill="#1A1A1A"/></svg>