<svg width="75" height="68" data-name="Слой 1" xmlns="http://www.w3.org/2000/svg" viewBox="0 0 512 465.55"><path d="M484.23 0H27.77A27.8 27.8 0 000 27.77v100.55a7.58 7.58 0 0015.15 0V27.77a12.63 12.63 0 0112.62-12.62h456.46a12.63 12.63 0 0112.62 12.62v303a12.63 12.63 0 01-12.62 12.62H327.42a72.48 72.48 0 000-21.21h98.24a7.57 7.57 0 007.57-7.57 34.88 34.88 0 0134.84-34.84 7.57 7.57 0 007.57-7.57V143.32a7.57 7.57 0 10-15.14 0v121.84A50.08 50.08 0 00418.66 307h-95.22a72.18 72.18 0 00-134.88 0H93.34a50.08 50.08 0 00-41.84-41.84V93.34A50.08 50.08 0 0093.34 51.5h325.32a50.08 50.08 0 0041.84 41.84V108a7.57 7.57 0 1015.14 0V86.34a7.57 7.57 0 00-7.57-7.57 34.88 34.88 0 01-34.84-34.84 7.57 7.57 0 00-7.57-7.57H86.34a7.57 7.57 0 00-7.57 7.57 34.88 34.88 0 01-34.84 34.84 7.57 7.57 0 00-7.57 7.57v185.82a7.57 7.57 0 007.57 7.57 34.88 34.88 0 0134.84 34.84 7.57 7.57 0 007.57 7.57h98.24a72.55 72.55 0 000 21.22H27.77a12.64 12.64 0 01-12.62-12.63V163.54a7.58 7.58 0 10-15.15 0v167.19a27.8 27.8 0 0027.77 27.77h160.79a71.92 71.92 0 0010.38 18.42V458a7.57 7.57 0 0010.44 7L256 446l46.62 19a7.52 7.52 0 002.86.57 7.58 7.58 0 007.58-7.58v-21.68a7.58 7.58 0 10-15.15 0v10.39l-39.05-15.94a7.65 7.65 0 00-5.72 0l-39 15.94v-55.21a72 72 0 0083.82 0v9.42a7.58 7.58 0 1015.15 0v-24a71.92 71.92 0 0010.38-18.42h160.74A27.8 27.8 0 00512 330.73v-303A27.8 27.8 0 00484.23 0zM256 389.8a57.06 57.06 0 1157.06-57.05A57.12 57.12 0 01256 389.8z"/><path d="M322.65 100a7.58 7.58 0 100-15.15h-133.3a7.58 7.58 0 100 15.15zM373.14 125.22H138.86a7.58 7.58 0 100 15.15h234.28a7.58 7.58 0 100-15.15zM373.14 165.62H138.86a7.58 7.58 0 100 15.15h234.28a7.58 7.58 0 100-15.15zM373.14 212.07h-36.35a7.58 7.58 0 100 15.15h36.35a7.58 7.58 0 100-15.15zM138.86 212.07a7.58 7.58 0 100 15.15h36.35a7.58 7.58 0 100-15.15zM256 292.86a39.89 39.89 0 1039.89 39.89A39.93 39.93 0 00256 292.86zm0 64.63a24.74 24.74 0 1124.74-24.74A24.77 24.77 0 01256 357.49zM230.25 219.64A25.75 25.75 0 10256 193.89a25.78 25.78 0 00-25.75 25.75zm36.36 0A10.61 10.61 0 11256 209a10.62 10.62 0 0110.61 10.64z"/></svg>