<svg viewBox="0 0 75 75" width="75" height="75" fill="none" xmlns="http://www.w3.org/2000/svg"><path d="M67.969 24.61h-1.172V1.171H1.172V50.39h4.687v17.578a3.52 3.52 0 003.516 3.515 3.52 3.52 0 003.516-3.515v-2.344a1.172 1.172 0 012.343 0v4.688a3.52 3.52 0 003.516 3.515h30.469a3.52 3.52 0 003.515-3.516 3.52 3.52 0 00-3.515-3.515H44.53a1.172 1.172 0 01-1.172-1.172V52.734h3.516c1.907 0 3.587-.929 4.657-2.343h15.265V36.328h1.172c3.23 0 5.86-2.628 5.86-5.86 0-3.23-2.63-5.859-5.86-5.859zm-8.203 0v-2.344h4.687v2.343h-4.687zm-4.688 0v2.343h-3.516c-.4 0-.793.041-1.171.119v-4.806h7.03v2.343h-2.343zM38.672 36.383v-4.743h7.15a5.85 5.85 0 00-.119 1.172v12.89H43.36v-4.127c0-2.703-2.06-4.908-4.687-5.192zm25.781-16.462h-7.031V12.89h7.031v7.03zm-32.812 9.375v-7.031h7.03v7.03h-7.03zm-2.344-9.375V12.89h7.031v7.03h-7.031zm-2.344 0h-7.031V12.89h7.031v7.03zm-9.375 0h-7.031V12.89h7.031v7.03zm2.344 2.344v7.03H12.89v-7.03h7.03zm2.344 0h7.03v7.03h-7.03v-7.03zm16.406-2.344V12.89h7.031v7.03h-7.031zm9.375 0V12.89h7.031v7.03h-7.031zm2.344-9.375V3.516h7.03v7.03h-7.03zm-2.344 0h-7.031V3.516h7.03v7.03zm-9.375 0H31.64V3.516h7.03v7.03zm-9.375 0h-7.031V3.516h7.03v7.03zm-9.375 0H12.89V3.516h7.03v7.03zM8.203 19.922H3.516V12.89h4.687v7.03zm2.344 2.344v7.03H3.516v-7.03h7.03zM8.203 31.64v7.03H3.516v-7.03h4.687zm2.344 0h7.031v7.03h-7.031v-7.03zm9.375 0h7.031v7.03h-7.031v-7.03zm9.783 7.03h-.408v-7.03h7.031v4.993l-6.623 2.038zm17.2-9.374h-5.89v-7.031h7.032v5.89a5.85 5.85 0 00-1.141 1.14zm17.548-18.75h-4.687V3.516h4.687v7.03zM10.547 3.516v7.03H3.516v-7.03h7.03zm-7.031 37.5h18.572l-13.162 4.05a4.315 4.315 0 00-2.897 2.98H3.516v-7.03zm34.596 23.437c-.29 0-.577-.043-.855-.128L9.615 55.82a1.991 1.991 0 01-1.412-1.913v-.835c.23.118.469.222.723.3l27.645 8.508a5.218 5.218 0 004.445-.652v.322a2.906 2.906 0 01-2.904 2.904zm6.42 4.688h4.687a1.172 1.172 0 010 2.343H18.75a1.172 1.172 0 01-1.172-1.171v-4.688a3.52 3.52 0 00-3.515-3.516 3.52 3.52 0 00-3.516 3.516v2.344a1.172 1.172 0 01-2.344 0v-10.21c.23.118.469.222.723.3l27.645 8.507c.501.153 1.02.23 1.54.23 1.086 0 2.095-.33 2.932-.897.144 1.81 1.644 3.242 3.488 3.242zm-3.516-14.063v1.784a2.906 2.906 0 01-3.759 2.776L9.615 51.13a1.99 1.99 0 01-1.412-1.912c0-.884.567-1.653 1.412-1.913L37.257 38.8a2.906 2.906 0 013.758 2.776v4.127H37.5a3.522 3.522 0 00-3.466 4.104c.274 1.669 1.822 2.927 3.598 2.927h3.384v2.344zm9.375-8.203a3.52 3.52 0 01-3.516 3.516h-9.243c-.632 0-1.197-.425-1.288-.966a1.165 1.165 0 01.262-.962 1.17 1.17 0 01.894-.416h8.203a2.346 2.346 0 002.344-2.344v-12.89a3.52 3.52 0 013.516-3.516h3.515v2.344h-2.344a2.346 2.346 0 00-2.343 2.343v12.891zm2.225 1.172a5.85 5.85 0 00.118-1.172v-5.86h11.72v7.032H52.615zm11.837-9.375H52.734v-4.688h2.344v2.344h9.375v2.344zm3.516-4.688H57.422v-7.03h10.547a3.52 3.52 0 013.515 3.515 3.52 3.52 0 01-3.515 3.515z" fill="#1A1A1A"/></svg>