<svg viewBox="0 0 75 75" width="75" height="75" fill="none" xmlns="http://www.w3.org/2000/svg"><g clip-path="url(#clip0)" fill="#1A1A1A"><path d="M58.288 15.396a1.099 1.099 0 100-2.197 1.099 1.099 0 000 2.197zM62.849 15.396a1.099 1.099 0 100-2.197 1.099 1.099 0 000 2.197zM67.41 15.396a1.099 1.099 0 100-2.197 1.099 1.099 0 000 2.197z"/><path d="M72.767 8.71H2.233A2.235 2.235 0 000 10.944v53.113a2.235 2.235 0 002.233 2.232h31.971a1.099 1.099 0 000-2.197H2.233a.035.035 0 01-.036-.035V59.78h70.606v4.275c0 .02-.016.035-.036.035H38.6a1.099 1.099 0 000 2.197h34.168A2.235 2.235 0 0075 64.056V10.944a2.235 2.235 0 00-2.233-2.233zM2.197 19.888h21.559a1.099 1.099 0 000-2.198H2.197v-6.745c0-.02.016-.036.036-.036h70.534c.02 0 .036.016.036.036v6.745H28.15a1.099 1.099 0 100 2.197h12.304v37.697H2.197V19.886zm40.455 37.696V19.886h30.15v37.697h-30.15z"/><path d="M35.12 35.305a1.078 1.078 0 00-.07-.035L22.383 29.58a3.665 3.665 0 00-3.402 0L6.313 35.27l-.07.035a1.84 1.84 0 00-.974 1.687 1.84 1.84 0 001.075 1.624l4.537 2.093v6.717c0 .632.379 1.195.965 1.433l1.502.61c2.365.96 4.85 1.44 7.335 1.44 2.487 0 4.975-.482 7.342-1.444l1.493-.606c.586-.239.964-.8.964-1.433v-6.717l4.537-2.094a1.84 1.84 0 001.075-1.624 1.84 1.84 0 00-.974-1.686zm-6.835 11.683l-1.087.442a17.216 17.216 0 01-13.023.003l-1.097-.445v-5.265l6.065 2.799a3.67 3.67 0 003.077 0l6.065-2.799v5.265zM21.3 42.526a1.473 1.473 0 01-1.236 0L7.958 36.94l11.956-5.371.07-.035a1.47 1.47 0 011.396 0l.07.035 11.956 5.371L21.3 42.526zM47.902 27.23a1.099 1.099 0 100-2.197 1.099 1.099 0 000 2.197zM47.902 33.639a1.099 1.099 0 100-2.198 1.099 1.099 0 000 2.198zM47.902 40.045a1.099 1.099 0 100-2.197 1.099 1.099 0 000 2.197zM47.902 46.451a1.099 1.099 0 100-2.197 1.099 1.099 0 000 2.197zM47.902 52.857a1.099 1.099 0 100-2.197 1.099 1.099 0 000 2.197zM51.947 27.23h15.37a1.099 1.099 0 000-2.197h-15.37a1.099 1.099 0 100 2.197zM67.316 31.441H51.947a1.099 1.099 0 100 2.198h15.37a1.099 1.099 0 000-2.198zM67.316 37.848H51.947a1.099 1.099 0 100 2.197h15.37a1.099 1.099 0 000-2.197zM67.316 44.254H51.947a1.099 1.099 0 100 2.197h15.37a1.099 1.099 0 000-2.197zM67.316 50.66H51.947a1.099 1.099 0 100 2.197h15.37a1.099 1.099 0 000-2.197z"/></g><defs><clipPath id="clip0"><path fill="#fff" d="M0 0h75v75H0z"/></clipPath></defs></svg>