<svg data-name="Слой 1" xmlns="http://www.w3.org/2000/svg" viewBox="0 0 113.39 65.8" width="138" height="80"><defs><style>.cls-1{fill:#ec691f}.cls-1,.cls-2{fill-rule:evenodd}.cls-2,.cls-3{fill:#5b5b5b}</style></defs><path class="cls-1" d="M37.59.8a3.1 3.1 0 00-2.05-.8 3 3 0 00-2 .75L.51 31.51a1.53 1.53 0 00.34 2.42 1.55 1.55 0 00.75.2h13.32a5.69 5.69 0 003.62-1.29l17-15.2 17 15.2a5.71 5.71 0 003.63 1.3h13.34a1.54 1.54 0 00.74-.2 1.53 1.53 0 00.34-2.42zM112.94 31.51S80.38 1.21 80.33 1.18A5 5 0 0077.11 0h-3.46a1.54 1.54 0 00-1.53 1.54 1.55 1.55 0 00.47 1.11L105.18 33a5 5 0 003.22 1.17h3.46a1.54 1.54 0 00.74-.2 1.53 1.53 0 00.34-2.42zM64.36 1.18A5 5 0 0061.14 0H47.22a1.46 1.46 0 00-.63.14 1.53 1.53 0 00-.43 2.51L78.74 33A5 5 0 0082 34.13h13.89a1.61 1.61 0 00.75-.2 1.53 1.53 0 00.36-2.42S64.41 1.21 64.36 1.18zM82.76 49a3.57 3.57 0 005.44 0 5.21 5.21 0 001.06-3.47 5.58 5.58 0 00-1-3.59 3.36 3.36 0 00-2.75-1.3A3.31 3.31 0 0082.76 42a5.58 5.58 0 00-1.05 3.59A5.27 5.27 0 0082.76 49zm-4.34-6.88A7.43 7.43 0 0180 39.58a6.85 6.85 0 012.4-1.66 8.69 8.69 0 016.19 0A6.85 6.85 0 0191 39.58a7.43 7.43 0 011.56 2.58 9.63 9.63 0 01.55 3.36 9.75 9.75 0 01-.54 3.34A7.22 7.22 0 0191 51.42a6.75 6.75 0 01-2.4 1.64 8.32 8.32 0 01-3.14.57 8.16 8.16 0 01-3.11-.57A6.84 6.84 0 0180 51.42a7.55 7.55 0 01-1.54-2.56 9.51 9.51 0 01-.55-3.34 9.63 9.63 0 01.51-3.36zM47.67 37.35q-1.8 0-1.8 2.58V50h-4V39.93q0-2.58-1.83-2.58a2 2 0 00-.35 0c-1 .16-1.45 1-1.45 2.55V50h-4V39.93q0-2.58-1.83-2.58t-1.8 2.58v11.12c0 1.73.82 2.58 2.47 2.58H47c1.66 0 2.5-.85 2.5-2.58V39.93q0-2.58-1.83-2.58zM7.4 50a3 3 0 01-1.94.47H3.69v-3.86h1.72a3.21 3.21 0 012 .45 1.94 1.94 0 01.54 1.56A1.68 1.68 0 017.4 50zm-.05-7.89a1.55 1.55 0 01-.46 1.26 2.74 2.74 0 01-1.67.37H3.69v-3.2h1.53c1.42-.03 2.13.46 2.13 1.54zm3.79 4.29a4.09 4.09 0 00-2-1.31V45a3.12 3.12 0 001.51-1.49A5.54 5.54 0 0011 41.4a3.47 3.47 0 00-1.52-2.95 6.54 6.54 0 00-4-1.1h-3a2.46 2.46 0 00-2 .62 3.15 3.15 0 00-.49 2v11.32a2.65 2.65 0 00.5 1.84 2.81 2.81 0 001.95.5h3.64a6 6 0 004.22-1.33 4.61 4.61 0 001.45-3.57 3.94 3.94 0 00-.61-2.36zM19.21 47.55l1.67-4.78 1.67 4.78zm8.21 2.93l-3.69-10.54c-.07-.19-.35-.89-.35-.89a2.69 2.69 0 00-5 0s-.38.86-.38.95l-3.67 10.5c-.57 1.63-.29 2.64.85 3s2-.22 2.57-1.84l.18-.5h5.88l.18.5c.56 1.62 1.42 2.24 2.57 1.84s1.44-1.39.86-3.02zM67.64 42.77L70.17 50h-5.06zM74.18 50H74l-3.87-11a2.69 2.69 0 00-5 0l-3.87 11h-.17q-2.58 0-2.58 1.8c0 1.22.86 1.82 2.58 1.82h13.09c1.72 0 2.58-.6 2.58-1.82S75.9 50 74.18 50zM113.39 39.64a1.09 1.09 0 000-.18 2.38 2.38 0 00-2.09-2.09 1.37 1.37 0 00-.29 0 2.35 2.35 0 00-1.77.79l-.27.31-.21.28-4 5.69-4.05-5.69c-.11-.14-.2-.26-.3-.37l-.08-.09-.11-.13a2.38 2.38 0 00-1.77-.78 1.37 1.37 0 00-.29 0A2.4 2.4 0 0096 39.46v.18a.45.45 0 000 .11v11.3c0 1.73.61 2.59 1.83 2.59s1.8-.86 1.8-2.59v-7.53l3.57 5a1.86 1.86 0 001.54.82 1.83 1.83 0 001.54-.85l3.56-5v7.52c0 1.73.59 2.59 1.79 2.59s1.83-.86 1.83-2.59V39.75a.41.41 0 000-.11z" transform="translate(-.06)"/><path class="cls-2" d="M36.94 59.4a.69.69 0 00-.41.12 1.71 1.71 0 00-.33.33l-2.56 3.39v-2.85q0-1-.69-1t-.69 1v4.42a1.06 1.06 0 00.15.63.54.54 0 00.47.2 1 1 0 00.42-.1 1.3 1.3 0 00.38-.37l2.51-3.31v2.8c0 .65.23 1 .69 1s.69-.33.69-1v-4.32a1.44 1.44 0 00-.14-.7.54.54 0 00-.49-.24z" transform="translate(-.06)"/><path class="cls-2" d="M35.64 58.72A.7.7 0 1135 58a.69.69 0 01.64.72zM47.83 60.28v-.06a.91.91 0 00-.79-.8h-.11a.89.89 0 00-.67.29l-.11.12-.08.11-1.54 2.16L43 60l-.11-.15v-.05a.91.91 0 00-.67-.29H42a.91.91 0 00-.79.8v4.29c0 .65.23 1 .69 1s.68-.33.68-1v-2.85l1.42 1.9a.7.7 0 001.17 0l1.34-1.89v2.84c0 .65.23 1 .68 1s.69-.33.69-1v-4.32z" transform="translate(-.06)"/><path class="cls-3" d="M54.5 63.2l-.71-2.26L53 63.2zm.4 1.28h-2.25l-.21.62c-.13.41-.36.61-.66.61a.62.62 0 01-.66-.66 1.34 1.34 0 010-.2.66.66 0 01.06-.2l1.58-4.29a1.59 1.59 0 01.42-.68.92.92 0 01.64-.22 1.06 1.06 0 011 .81l1.54 4.36a1.48 1.48 0 01.09.44.59.59 0 01-.2.47.72.72 0 01-.48.17c-.35 0-.59-.22-.73-.67l-.17-.56zm5.66-3.65H60c-.65 0-1-.21-1-.64s.33-.64 1-.64h2.41c.66 0 1 .21 1 .64s-.33.64-1 .64h-.51v3.89c0 .65-.23 1-.69 1s-.69-.33-.69-1zm7 4.8a1.89 1.89 0 01-.46 0 .61.61 0 01-.29-.14.59.59 0 01-.15-.27 1.66 1.66 0 010-.42v-4.28a1.89 1.89 0 010-.44.71.71 0 01.15-.3.65.65 0 01.29-.18 2 2 0 01.47-.05h1.56c.65 0 1 .21 1 .64s-.33.64-1 .64H68v1.09h1c.66 0 1 .22 1 .65s-.33.64-1 .64h-1v1.13h1.17c.66 0 1 .22 1 .64s-.32.65-1 .65zm8.13-3.21c.63 0 .94-.27.94-.8a.72.72 0 00-.23-.6 1.08 1.08 0 00-.71-.19h-.6v1.59zm-2-1.9a2.65 2.65 0 010-.44.62.62 0 01.44-.48 2.14 2.14 0 01.48-.05h1.25a3 3 0 01.93.14 2 2 0 01.7.42 1.71 1.71 0 01.44.65 2.35 2.35 0 01.15.86 2 2 0 01-.55 1.51 2.15 2.15 0 01-1.56.55h-.93v1c0 .65-.23 1-.7 1s-.69-.33-.69-1zm8-.07c0-.65.23-1 .69-1s.7.33.7 1v2.85l2.55-3.38a1.72 1.72 0 01.34-.33.65.65 0 01.4-.12.55.55 0 01.49.24 1.26 1.26 0 01.15.69v4.32c0 .65-.23 1-.69 1s-.7-.33-.7-1v-2.8L83 65.23a1.43 1.43 0 01-.39.39.73.73 0 01-.41.12.53.53 0 01-.48-.22 1.13 1.13 0 01-.15-.65v-4.42zm12 2.75l-.7-2.26-.75 2.26zm.31 1.28h-2.23l-.21.62c-.13.41-.36.61-.66.61a.65.65 0 01-.48-.18.66.66 0 01-.18-.48 1.34 1.34 0 010-.2.66.66 0 01.06-.2l1.58-4.29a1.59 1.59 0 01.42-.68.92.92 0 01.64-.22 1 1 0 011 .81l1.54 4.36a1.27 1.27 0 01.1.44.59.59 0 01-.2.47.73.73 0 01-.49.17c-.34 0-.59-.22-.72-.67l-.17-.56zm7.78-3.65H101l-.89 3.92a1.63 1.63 0 01-.13.39 2 2 0 01-.24.33.9.9 0 01-.32.23 1 1 0 01-.42.09.94.94 0 01-.59-.18.61.61 0 01-.23-.52.41.41 0 01.1-.31 1.14 1.14 0 01.23-.2 2 2 0 00.26-.24 1 1 0 00.2-.42l.83-3.56a1.68 1.68 0 01.15-.4.79.79 0 01.23-.25.73.73 0 01.31-.13 2.63 2.63 0 01.43 0h1.3c.65 0 1 .21 1 .65v4.52c0 .65-.23 1-.69 1s-.7-.33-.7-1v-3.92zm6.18 4.8a1.89 1.89 0 01-.46 0 .61.61 0 01-.29-.14.59.59 0 01-.15-.27 1.66 1.66 0 010-.42v-4.3c0-.65.23-1 .69-1s.69.33.69 1v1.44h.88a2.36 2.36 0 011.62.5 1.78 1.78 0 01.54 1.36 1.8 1.8 0 01-.54 1.37 2.31 2.31 0 01-1.62.51zm2-1.88a.58.58 0 00-.24-.52 1.3 1.3 0 00-.73-.16h-.62v1.37h.65a1.18 1.18 0 00.71-.18.62.62 0 00.27-.51zm3.44 1c0 .65-.23 1-.7 1s-.69-.33-.69-1v-4.3c0-.65.23-1 .69-1s.7.33.7 1zM3.13 65.81a3.18 3.18 0 01-1.21-.23 2.69 2.69 0 01-.92-.65 3 3 0 01-.61-1 4 4 0 01-.22-1.33 3.73 3.73 0 01.23-1.32 3.11 3.11 0 01.64-1 2.82 2.82 0 011-.65 3 3 0 011.17-.22 3.36 3.36 0 01.74.08 2.43 2.43 0 01.58.22 1.32 1.32 0 01.37.32.56.56 0 01.14.35.62.62 0 01-.18.44.55.55 0 01-.41.19 1.27 1.27 0 01-.26 0l-.28-.08-.33-.09a2 2 0 00-.36 0 1.32 1.32 0 00-.6.13 1.44 1.44 0 00-.48.37 2.12 2.12 0 00-.31.6 2.71 2.71 0 00-.1.79A2 2 0 002.08 64a1.39 1.39 0 001.12.49 1.23 1.23 0 00.39 0l.35-.1.29-.11a.63.63 0 01.26 0 .51.51 0 01.38.18.57.57 0 01.17.42.68.68 0 01-.13.4 1.62 1.62 0 01-.39.33 2.28 2.28 0 01-.61.24 3.21 3.21 0 01-.78-.04zm6-5h-.49c-.65 0-1-.21-1-.64s.33-.64 1-.64h2.41c.66 0 1 .21 1 .64s-.33.64-1 .64h-.51v3.89c0 .65-.23 1-.69 1s-.7-.33-.7-1zm8 1.59c.63 0 .94-.27.94-.8a.72.72 0 00-.23-.6 1.08 1.08 0 00-.71-.19h-.6v1.59zm-2-1.9a2.65 2.65 0 010-.44.71.71 0 01.15-.3.69.69 0 01.3-.18 2 2 0 01.47-.05h1.25a2.93 2.93 0 01.93.14 2 2 0 01.7.42 1.71 1.71 0 01.44.65 2.35 2.35 0 01.15.86 2 2 0 01-.55 1.51 2.15 2.15 0 01-1.56.55h-.93v1c0 .65-.23 1-.7 1s-.69-.33-.69-1zm7.65 2.07a4 4 0 01.22-1.3 3.1 3.1 0 01.61-1 2.69 2.69 0 01.94-.65 3 3 0 011.22-.23 3 3 0 011.21.23 2.73 2.73 0 01.95.65 2.94 2.94 0 01.61 1 3.73 3.73 0 01.22 1.32 3.87 3.87 0 01-.21 1.31 3 3 0 01-.61 1 2.64 2.64 0 01-.95.65 3 3 0 01-1.22.24 3.07 3.07 0 01-1.23-.24 2.6 2.6 0 01-.94-.65 2.87 2.87 0 01-.6-1 3.64 3.64 0 01-.18-1.31zm1.51 0a2.68 2.68 0 00.1.78 1.94 1.94 0 00.31.59 1.29 1.29 0 00.47.37 1.32 1.32 0 00.6.13 1.35 1.35 0 001.07-.5 1.73 1.73 0 00.3-.59 2.67 2.67 0 00.11-.78 2.88 2.88 0 00-.11-.81 1.69 1.69 0 00-.3-.6 1.41 1.41 0 00-.47-.38 1.47 1.47 0 00-1.21 0 1.29 1.29 0 00-.46.38 1.88 1.88 0 00-.31.6 2.9 2.9 0 00-.06.85z" transform="translate(-.06)"/></svg>