<svg data-name="Слой 1" xmlns="http://www.w3.org/2000/svg" viewBox="0 0 71.4 23.05"><path d="M71.11 11.64h-18.6a2.84 2.84 0 01-2.16-.76 3 3 0 01-.74-2.23V2.93a2.91 2.91 0 01.74-2.16 2.83 2.83 0 012.16-.7H71.4v2.72H53a.66.66 0 00-.45.14.59.59 0 00-.15.42v4.88a.66.66 0 00.15.49c.07.13.22.13.45.13h18.4v2.79h-.29m-34.11 0h-3V2.86H23V0h25.35v2.79h-11v8.85H37m-15.54 0H3c-1 0-3 0-3-2.71V2.51C0 0 1.71 0 2.83 0h19v2.79h-19v1.68h19v2.79h-19v1.6h19v2.78h-.3" fill="#fbca00"/><path d="M6.15 22.92h-.77v-4.23h2.77v.64h-2zm4.27-4.23c.66 0 1.64.11 1.64 1.32 0 .76-.42 1.35-1.65 1.35h-.9v1.56h-.77v-4.23zm-.92 2h.91c.35 0 .85-.05.85-.69s-.55-.7-.85-.7h-.9v1.39zm5.73-2h.82l-1.42 3.41c-.36.87-.83.89-1.2.89a1.77 1.77 0 01-.55-.07v-.67a1.32 1.32 0 00.44.08.56.56 0 00.61-.51l-1.62-3.12h.95l1.09 2.3zm2.08 4.23h-.78v-4.23H20v4.23h-.77v-3.59h-1.92v3.59zm4.44 0H21v-4.23h3.4v4.23h-.77v-3.59h-1.88v3.59zm4 0h-.82l1.59-4.23h.77l1.6 4.23H28l-.3-.89H26zm1.8-1.52l-.64-1.89-.64 1.89zm5.71-2.71h.92l-1.88 1.95 2 2.28h-1l-1.8-2.19v2.19h-.77v-4.23h.77v1.9zm3.39-.13a2 2 0 012.07 2.25 2.08 2.08 0 11-4.14 0 2 2 0 012.03-2.25zm0 3.85c1 0 1.24-.95 1.24-1.6s-.19-1.6-1.24-1.6-1.25.95-1.25 1.6.16 1.6 1.21 1.6zm3.63-2.84v3.35h-.77v-4.23h1.15l1.16 3.21 1.16-3.21h1.15v4.23h-.77v-3.35l-1.25 3.35h-.61zm5.64 3.35h-.77v-4.23h3.42v4.23h-.77v-3.59h-1.92v3.59zm4 0H49l1.6-4.23h.77L53 22.92h-.83l-.33-.92h-1.69zm1.79-1.52L51 19.51l-.65 1.89zm2.61 1.52h-.77v-4.23h.77v1.69h1.89v-1.69h.77v4.23h-.77V21h-1.97zm6.47-4.23h.75v4.24h-.77v-3.1l-2 3.1h-.76v-4.24h.78v3.1zm4.57 0H66v4.24h-.77v-3.1l-2 3.1h-.76v-4.24h.78v3.1zm-1.66-1.1a.67.67 0 001.29 0h.62a1.34 1.34 0 01-2.54 0z" fill="#1a1a1a"/></svg>