<svg width="488" height="459" viewBox="0 0 488 459" fill="none" xmlns="http://www.w3.org/2000/svg"><path d="M278.667 319.333c0 76.952-62.382 139.334-139.334 139.334C62.382 458.667 0 396.285 0 319.333 0 242.382 62.382 180 139.333 180c76.952 0 139.334 62.382 139.334 139.333zm-213.653 0c0 41.046 33.274 74.32 74.319 74.32 41.046 0 74.32-33.274 74.32-74.32 0-41.045-33.274-74.319-74.32-74.319-41.045 0-74.32 33.274-74.32 74.319z" fill="#E2DDDC"/><path d="M487.667 139.333c0 76.952-62.382 139.334-139.334 139.334-76.951 0-139.333-62.382-139.333-139.334C209 62.382 271.382 0 348.333 0c76.952 0 139.334 62.382 139.334 139.333zm-213.653 0c0 41.046 33.274 74.32 74.319 74.32 41.046 0 74.32-33.274 74.32-74.32 0-41.045-33.274-74.32-74.32-74.32-41.045 0-74.319 33.275-74.319 74.32z" fill="#E2DDDC"/></svg>