<svg xmlns="http://www.w3.org/2000/svg" viewBox="0 0 64 64" width="75" height="75"><path d="M55 8a7 7 0 00-6.92 6H36v2h12v39a1 1 0 002 0 5 5 0 0110 0v.21A4.8 4.8 0 0155.21 60H4V39.317A27.1 27.1 0 0028 54a1 1 0 000-2 24.84 24.84 0 01-10.829-2.508l.621-2.316a2.925 2.925 0 002.654-2.2L23.738 32.7a17.905 17.905 0 002.262.271V34a1 1 0 002 0v-1.029a17.905 17.905 0 002.262-.269l3.291 12.271a2.921 2.921 0 002.655 2.2l.826 3.084A1 1 0 0038 51a1.013 1.013 0 00.259-.034 1 1 0 00.707-1.225l-.825-3.077a3.008 3.008 0 001.2-3.233l-6.562-24.488A6.981 6.981 0 0031 9.264V6a4 4 0 00-8 0v3.264a6.981 6.981 0 00-1.779 9.679l-6.568 24.492a3 3 0 001.206 3.228l-.5 1.86A24.971 24.971 0 014 33.972V16h14v-2H2v48h53.21A6.8 6.8 0 0062 55.206V15a7.008 7.008 0 00-7-7zM28 30.94V30a1 1 0 00-2 0v.94a15.911 15.911 0 01-1.735-.2l2.348-8.758c.129.007.256.02.387.02s.258-.013.387-.02l2.348 8.758a15.911 15.911 0 01-1.735.2zm9.413 13.005a1.009 1.009 0 01-.7 1.225h-.006a1 1 0 01-.755-.1.983.983 0 01-.459-.608l-6.142-22.877a6.98 6.98 0 001.807-.967zM25 6a2 2 0 014 0v2.3a6.927 6.927 0 00-4 0zm2 4a5 5 0 11-5 5 5.006 5.006 0 015-5zM16.586 43.949l6.256-23.331a6.98 6.98 0 001.807.967l-6.136 22.882a1 1 0 01-1.21.708h-.009a1.009 1.009 0 01-.708-1.226zM60 50.105a6.991 6.991 0 00-10 0V15a5 5 0 0110 0z" fill="#1A1A1A"/><path d="M27 18a3 3 0 10-3-3 3 3 0 003 3zm0-4a1 1 0 11-1 1 1 1 0 011-1z" fill="#1A1A1A"/></svg>