<svg data-name="Слой 1" xmlns="http://www.w3.org/2000/svg" viewBox="0 0 66.58 40"><path d="M6.89 40h52.48l-26.1-26.1z" fill-rule="evenodd" fill="#7bb51c"/><path d="M56.35 35.1l-1.41-1.43 6-6L63 29.79 61.24 36l4-3.93 1.37 1.38-6 6-1.79-1.8 1.55-6.49-4 4zM5.89 38.72l4.09-4-1.37-1.4-2.56 2.52-4.53-4.64L0 32.68l5.89 6zm5-4.9l4.19-4.09-1.15-1.18-2.66 2.6L10 29.84l2.14-2.08-1.24-1.24-2.13 2.08-1.09-1.12L10.25 25 9.1 23.79l-4.18 4.08 5.95 5.95zm41.24-3l6-5.95 1.51 1.52-6 6zm.83-11.16l1.55 1.56-4.51 4.5 2.54 2.56L51 29.73l-4-4.12 6-5.95zm-31.9 4.26s-3.77-1.28-3.94-1.25.8-2.29-1.14-3.31a2.55 2.55 0 00-2.89.53l-3.08 3 5.94 6 1.57-1.53-3.21-3.29 5.19 1.37 1.56-1.52zm29.17-7l-3.64-3.67-6 5.93 1.55 1.56 3.26-3.24-1.18 5.36 1.59 1.6s1.24-3.84 1.28-4a2.53 2.53 0 002.83-.53 2.35 2.35 0 00.31-3zm-35 6.17a10.92 10.92 0 01-1 .92l-1.42-1.45A12.5 12.5 0 0114 21.48a.93.93 0 011.24.06 1 1 0 010 1.56zm9.36-8.66a4.49 4.49 0 00-6-.15 4.35 4.35 0 00-.14 6.17 4.31 4.31 0 106.18-6zm-1.25 4.88c-.93.92-2.07.67-3.38-.67-1.1-1.12-1-2.25-.23-3 .55-.54 1.66-1 3 .34 1.5 1.53 1.55 2.43.61 3.34zM48 18.67a1.15 1.15 0 01-1.44-.17l-1.06-1.11L47 16l1.1 1.11c.07.09.9.68-.1 1.56zm-8.78-.84l-4.16-4.19 6-5.95 4.17 4.21L44 13.1l-2.61-2.64-1 1 2.06 2.08-1.26 1.25-2-2.09-1.31 1.3 2.59 2.61-1.24 1.22zm-9.92-1.95l1.54-1.51L28.52 12l-1.39-5.81-1.78 1.73.93 3.29-3.12-1.15-1.67 1.63 5.31 1.7 2.5 2.48zm-.48-8.55L27.44 6l6-5.95 2 2-2.2 4.18 4.41-2 1.89 1.91-6 5.94-1.45-1.46 3.17-3.12-4.33 2-.9-.9 2-4.33-3.23 3.1z" fill-rule="evenodd"/></svg>